# xmcd
#
# Track frame offsets:
#	150
#	18590
#	41664
#
# Disc length: 948 seconds
#
# Revision: 1
# Processed by: cddbd v1.5.1PL0 Copyright (c) Steve Scherf et al.
# Submitted via: dBpowerAMP V4.0
#
DISCID=1e03b203
DTITLE=Various Artist - classicos
DYEAR=1900
DGENRE=Blues
TTITLE0=ana carolina - musica1
TTITLE1=aha - musica2
TTITLE2=ana carolina - musica3
EXTD=
EXTT0=
EXTT1=
EXTT2=
PLAYORDER=
